# xmcd CD database file
#
# Track frame offsets:
#	150
#	11277
#	25465
#	40072
#	48842
#	62110
#	80872
#	94230
#	104465
#	110965
#	125380
#	140430
#	151585
#	166480
#	186547
#	202557
#	212612
#	224265
#	241965
#	258225
#
# Disc length: 3783 seconds
#
# Revision: 0
# Processed by: cddbd v1.5.2PL0 Copyright (c) Steve Scherf et al.
# Submitted via: CDex 1.70beta2
#
DISCID=160ec514
DTITLE=Tony Bennett - MTV Unplugged
DYEAR=2003
DGENRE=Jazz
TTITLE0=Old Devil Moon
TTITLE1=Speak Low
TTITLE2=It Had Be You
TTITLE3=I Love a Piano
TTITLE4=It Amazes Me
TTITLE5=The Girl I Love
TTITLE6=Fly Me To The Moon
TTITLE7=You're All The World To Me
TTITLE8=Rags To Riches
TTITLE9=When Joanna Loved Me
TTITLE10=The Good Life
TTITLE11=I Left My Heart In San Francisco
TTITLE12=Steppin' Out With My Baby
TTITLE13=Moonglow
TTITLE14=They Can't Take That Away From Me
TTITLE15=A Foggy Day
TTITLE16=All Of You
TTITLE17=Body And Soul
TTITLE18=I Don't Mean a Thing If It Ain't Got That Swing
TTITLE19=Autumn Leaves - Indian Summer
EXTD=YEAR: 2003
EXTT0=
EXTT1=
EXTT2=
EXTT3=
EXTT4=
EXTT5=
EXTT6=
EXTT7=
EXTT8=
EXTT9=
EXTT10=
EXTT11=
EXTT12=
EXTT13=
EXTT14=
EXTT15=
EXTT16=
EXTT17=
EXTT18=
EXTT19=
PLAYORDER=
